<svg version="1.1" id="Layer_1" xmlns="http://www.w3.org/2000/svg" xmlns:xlink="http://www.w3.org/1999/xlink" x="0px" y="0px"
	 width="100%" viewBox="0 0 496 496" enable-background="new 0 0 496 496" xml:space="preserve">
<path fill="#000000" opacity="1.000000" stroke="none" 
	d="
M102.377396,358.368958 
	C106.549400,354.308319 110.478172,350.490509 114.469032,346.612366 
	C110.267654,339.925140 106.035858,333.763214 102.382988,327.275330 
	C87.144547,300.210388 81.158798,270.846405 83.923256,240.217560 
	C87.963058,195.458405 108.937157,159.477158 143.960770,131.488708 
	C165.581833,114.210655 190.315353,103.665085 217.458466,100.124741 
	C264.601166,93.975784 306.737549,106.707069 343.341431,137.179199 
	C348.198761,141.222855 348.025085,141.489746 343.484253,145.958878 
	C338.616241,150.749969 333.663422,155.454941 328.799988,160.250595 
	C323.269287,165.704208 321.305573,165.935608 315.215179,161.036499 
	C299.766327,148.609573 282.477356,139.992249 263.013611,136.099869 
	C224.993729,128.496628 190.996109,137.803329 161.198944,161.977829 
	C137.012970,181.599915 123.144844,207.702728 118.623795,238.255310 
	C113.588890,272.280426 122.980400,302.911316 144.057571,329.843353 
	C165.655426,357.440765 194.381638,373.201385 228.934860,377.305054 
	C251.540771,379.989777 273.792297,377.658112 294.226624,365.900513 
	C300.755188,362.144073 304.141144,357.745361 303.832092,349.632202 
	C303.191925,332.827667 303.703461,315.981262 303.579071,299.153290 
	C303.555237,295.930176 304.408630,293.495331 306.691711,291.153961 
	C316.812256,280.775024 327.061584,270.537079 337.771851,260.761475 
	C340.502106,258.269501 343.369293,256.161133 347.117432,257.930664 
	C350.384857,259.473267 350.084869,262.883667 350.094513,265.833588 
	C350.203705,299.157257 350.200592,332.481476 350.390686,365.804596 
	C350.416687,370.362457 348.316071,373.304016 345.027039,375.894287 
	C322.245941,393.835449 296.880341,405.966064 268.045715,410.462738 
	C235.158234,415.591461 203.810165,410.691742 173.871857,396.317230 
	C167.397736,393.208771 161.360168,389.333435 155.470795,385.272766 
	C151.701370,382.673737 148.974991,383.199860 145.944550,386.466461 
	C129.962265,403.694061 113.005226,419.962952 96.354073,436.532288 
	C92.309120,440.557404 87.791924,443.868042 82.541428,446.245483 
	C74.880371,449.714478 67.957718,448.567657 61.569763,443.393707 
	C47.088982,431.665039 45.867260,412.987030 58.903870,400.882721 
	C73.668365,387.174103 87.753609,372.733917 102.377396,358.368958 
z"/>
<path fill="#000000" opacity="1.000000" stroke="none" 
	d="
M191.388550,283.390076 
	C183.126129,291.411163 175.134476,299.203705 167.102936,306.954895 
	C162.051788,311.829773 158.651184,311.658661 154.298828,306.129486 
	C150.154388,300.864502 147.197250,294.925262 144.521210,288.777557 
	C142.402435,283.910095 143.346649,280.386902 147.069946,276.752930 
	C165.310776,258.949799 183.393036,240.984207 201.532242,223.076981 
	C206.037231,218.629578 210.482437,214.119232 215.067230,209.755615 
	C222.013931,203.143951 228.529709,202.649521 235.946304,208.861755 
	C244.751923,216.237442 253.142334,224.108963 261.709381,231.769302 
	C264.440887,234.211700 267.304810,236.527344 269.848328,239.152740 
	C272.529236,241.919922 274.437408,241.763702 277.163696,238.932343 
	C290.566406,225.013168 304.097900,211.215256 317.736603,197.526688 
	C343.016357,172.154541 368.403870,146.889801 393.738617,121.572449 
	C394.902985,120.408897 395.990417,119.168427 397.537476,117.509201 
	C393.866852,113.709854 390.315002,110.070831 386.809631,106.387581 
	C385.318970,104.821251 383.749847,103.284729 382.522247,101.521706 
	C379.336060,96.945793 381.156555,92.005821 386.639465,90.840981 
	C408.069336,86.288261 429.532318,81.874458 451.232025,78.779762 
	C459.254700,77.635620 461.491028,80.654442 460.703125,88.681557 
	C458.593109,110.178108 454.260986,131.330399 451.355225,152.697495 
	C450.917877,155.913269 449.827850,158.500549 446.679840,159.764587 
	C443.237885,161.146667 440.924469,159.130600 438.869049,156.840683 
	C434.445343,151.912430 430.113251,146.901993 425.465546,141.608414 
	C416.259125,150.546265 407.222534,159.129959 398.394287,167.922775 
	C361.211670,204.956223 324.098114,242.058990 286.933197,279.110229 
	C284.341827,281.693665 281.639008,284.186981 278.811554,286.507141 
	C273.803375,290.616760 271.566437,290.636017 266.638580,286.189728 
	C255.012939,275.700104 243.498062,265.087219 231.984833,254.473770 
	C226.159134,249.103363 226.196793,249.127792 220.519928,254.768448 
	C210.947067,264.280273 201.273590,273.690857 191.388550,283.390076 
z"/>
<path fill="#000000" opacity="1.000000" stroke="none" 
	d="
M372.594391,363.924316 
	C372.626770,324.452698 372.666748,285.470520 372.692322,246.488312 
	C372.696686,239.824020 372.975891,233.180984 373.603760,226.540726 
	C373.827606,224.173676 374.867462,222.437408 376.430573,220.901352 
	C387.598846,209.926392 398.814209,198.999237 409.960632,188.002197 
	C412.540436,185.456955 415.546967,184.919174 418.670959,186.195984 
	C421.640411,187.409653 422.345184,190.173981 422.343414,193.239365 
	C422.309937,251.547775 422.329956,309.856232 422.271667,368.164612 
	C422.265961,373.847076 419.680756,376.894653 414.262054,376.965271 
	C403.280365,377.108337 392.268250,377.701202 381.311279,376.637146 
	C373.536926,375.882172 372.622253,374.602936 372.611969,366.912689 
	C372.610840,366.079712 372.602234,365.246735 372.594391,363.924316 
z"/>
<path fill="#000000" opacity="1.000000" stroke="none" 
	d="
M229.349121,312.000061 
	C229.314224,325.648438 229.324799,338.797119 229.227768,351.945007 
	C229.163559,360.645874 226.150436,363.066711 217.757874,361.005035 
	C207.871658,358.576508 198.526871,354.687347 189.383347,350.227142 
	C185.382965,348.275787 183.797913,345.125031 183.716309,341.062408 
	C183.585999,334.574646 183.646805,328.081146 183.734940,321.591553 
	C183.789093,317.604584 185.273071,314.223206 188.207306,311.396210 
	C199.110901,300.891205 209.922318,290.290527 220.827637,279.787323 
	C222.438110,278.236237 224.026184,276.028320 226.781311,277.116608 
	C229.777328,278.300049 229.337204,281.068726 229.341461,283.538879 
	C229.357498,292.859253 229.348495,302.179657 229.349121,312.000061 
z"/>
<path fill="#000000" opacity="1.000000" stroke="none" 
	d="
M257.052002,308.664490 
	C264.375671,308.670837 271.209320,308.745148 278.040955,308.658783 
	C282.817749,308.598419 285.238983,310.920380 285.272369,315.576965 
	C285.353607,326.908661 285.280334,338.241425 285.337708,349.573425 
	C285.355560,353.095764 283.490631,354.937897 280.447784,356.307495 
	C271.410461,360.375183 261.958710,362.846466 252.150558,363.963562 
	C248.209534,364.412415 244.783569,363.132568 244.777115,358.608276 
	C244.756927,344.458282 243.836426,330.276703 245.427689,316.164185 
	C246.271790,308.677979 246.483871,308.701660 254.061279,308.668365 
	C254.894547,308.664703 255.727844,308.665283 257.052002,308.664490 
z"/>
</svg>